<?xml version="1.0" encoding="UTF-8" standalone="no"?>
<svg
   xmlns:dc="http://purl.org/dc/elements/1.1/"
   xmlns:cc="http://creativecommons.org/ns#"
   xmlns:rdf="http://www.w3.org/1999/02/22-rdf-syntax-ns#"
   xmlns:svg="http://www.w3.org/2000/svg"
   xmlns="http://www.w3.org/2000/svg"
   height="24.01001"
   width="22"
   id="svg4"
   version="1.1"
   style="display:block"
   focusable="false"
   aria-label="Share"
   role="img"
   viewBox="0 0 22 24.01001">
  <metadata
     id="metadata10">
    <rdf:RDF>
      <cc:Work
         rdf:about="">
        <dc:format>image/svg+xml</dc:format>
        <dc:type
           rdf:resource="http://purl.org/dc/dcmitype/StillImage" />
      </cc:Work>
    </rdf:RDF>
  </metadata>
  <defs
     id="defs8" />
  <path
     style="fill-rule:evenodd"
     id="path2"
     d="m 21.19,8.5000105 h -3.14 a 0.81,0.81 0 0 0 -0.81,0.8 c 0,0.44 0.36,0.8000005 0.81,0.8000005 h 2.33 v 12.31 H 1.62 v -12.31 h 3.11 c 0.45,0 0.81,-0.3600005 0.81,-0.8000005 a 0.81,0.81 0 0 0 -0.81,-0.8 H 0.81 a 0.81,0.81 0 0 0 -0.81,0.8 V 23.210011 c 0,0.44 0.36,0.8 0.81,0.8 h 20.38 c 0.45,0 0.81,-0.36 0.81,-0.8 V 9.3000105 a 0.81,0.81 0 0 0 -0.81,-0.8 z m -14.11,-3.82 c 0.19,0 0.36,-0.06 0.51,-0.18 l 2.01,-1.58 0.6,-0.47 V 16.240011 c 0,0.44 0.36,0.8 0.81,0.8 0.45,0 0.81,-0.36 0.81,-0.8 V 2.4500105 l 0.59,0.47 2.01,1.58 a 0.8,0.8 0 0 0 0.5,0.18 0.81,0.81 0 0 0 0.63,-0.3 0.79,0.79 0 0 0 -0.13,-1.12 L 11.5,0.17001054 a 0.42,0.42 0 0 0 -0.07,-0.04 l -0.07,-0.03 -0.01,-0.01 -0.05,-0.03 A 0.76,0.76 0 0 0 11,1.0537484e-5 0.81,0.81 0 0 0 10.7,0.06001054 l -0.01,0.01 -0.06,0.04 -0.07,0.03 a 0.42,0.42 0 0 0 -0.07,0.04 L 6.57,3.2700105 a 0.79,0.79 0 0 0 -0.13,1.12 c 0.16,0.19 0.39,0.3 0.63,0.3 z" />
</svg>
